# Blender 4.1.1
# www.blender.org
mtllib old_computer.mtl
o desk
v -0.920095 0.369364 0.641978
v -0.920095 1.638847 0.641978
v -0.920095 0.369364 -0.984538
v -0.920095 1.638847 -0.984538
v 0.726169 0.237732 0.810632
v 0.726169 1.770480 0.810632
v 0.726169 0.237732 -1.153191
v 0.726169 1.770480 -1.153191
v -0.333267 0.384113 0.024436
v -0.333267 0.384113 -0.366995
v 0.139340 0.343526 0.065024
v 0.139340 0.343526 -0.407583
v -0.357267 0.104653 -0.366995
v -0.357267 0.104653 0.024436
v 0.115340 0.064065 -0.407583
v 0.115340 0.064065 0.065024
v -0.702498 0.134301 -0.652930
v -0.702498 0.134301 0.310371
v 0.460572 0.034417 -0.752814
v 0.460572 0.034417 0.410255
v -0.706591 -0.018721 -0.652930
v -0.706591 -0.018721 0.310371
v 0.456478 -0.018721 -0.752814
v 0.456478 -0.018721 0.410255
v 0.963797 -0.061509 1.165195
v 0.963797 0.040756 1.165195
v 0.963797 -0.061509 -1.454610
v 0.963797 0.040756 -1.454610
v 1.832264 -0.061509 1.165195
v 1.832264 0.040756 1.165195
v 1.832264 -0.061509 -1.454610
v 1.832264 0.040756 -1.454610
v -0.090359 -0.051930 -1.609497
v -0.090359 2.074414 -1.609497
v -0.090359 -0.051930 -2.551803
v -0.090359 2.074414 -2.551803
v 1.148726 -0.051930 -1.609497
v 1.148726 2.074414 -1.609497
v 1.148726 -0.051930 -2.551803
v 1.148726 2.074414 -2.551803
vn -1.0000 -0.0000 -0.0000
vn -0.1019 -0.0000 -0.9948
vn 1.0000 -0.0000 -0.0000
vn -0.1019 -0.0000 0.9948
vn -0.0797 -0.9968 -0.0000
vn -0.0797 0.9968 -0.0000
vn 0.0856 0.9963 -0.0000
vn 0.9963 -0.0856 -0.0000
vn -0.9963 0.0856 -0.0000
vn -0.0849 0.0073 0.9964
vn -0.0849 0.0073 -0.9964
vn -0.0854 0.0034 0.9963
vn -0.0000 -1.0000 -0.0000
vn -0.0854 0.0034 -0.9963
vn 0.9970 -0.0768 -0.0000
vn -0.9996 0.0267 -0.0000
vn -0.0000 -0.0000 -1.0000
vn -0.0000 -0.0000 1.0000
vn -0.0000 1.0000 -0.0000
vt 0.784254 0.844663
vt 0.614410 0.844663
vt 0.614410 0.640083
vt 0.784254 0.640083
vt 0.187487 0.247769
vt 0.017600 0.247769
vt 0.000000 0.000000
vt 0.205118 0.000000
vt 0.615245 0.247006
vt 0.410235 0.247006
vt 0.410235 0.000000
vt 0.615245 0.000000
vt 0.410235 0.247769
vt 0.205118 0.247769
vt 0.222718 0.000000
vt 0.392604 0.000000
vt 0.187502 0.247769
vt 0.205118 0.495173
vt 0.000000 0.495173
vt 0.017616 0.247769
vt 0.614410 0.494013
vt 0.410235 0.472800
vt 0.410235 0.268219
vt 0.614410 0.247006
vt 0.620302 0.174990
vt 0.669073 0.174990
vt 0.674130 0.246096
vt 0.615245 0.246096
vt 0.658259 0.123048
vt 0.717144 0.123048
vt 0.760159 0.174990
vt 0.615245 0.174990
vt 0.564418 0.811700
vt 0.564418 0.740790
vt 0.599316 0.740790
vt 0.599316 0.811700
vt 0.373460 0.841484
vt 0.373460 0.782753
vt 0.408338 0.782753
vt 0.408338 0.841484
vt 0.373460 0.782753
vt 0.373460 0.711363
vt 0.408408 0.711360
vt 0.408408 0.782750
vt 0.564418 0.740787
vt 0.564418 0.669397
vt 0.599365 0.669400
vt 0.599365 0.740790
vt 0.574921 0.494013
vt 0.583490 0.669397
vt 0.568289 0.494413
vt 0.712087 0.051942
vt 0.663316 0.051942
vt 0.627690 0.000000
vt 0.747713 0.000000
vt 0.410235 0.828057
vt 0.555116 0.813070
vt 0.555116 0.987577
vt 0.410235 0.972591
vt 0.211506 0.423153
vt 0.220076 0.247769
vt 0.226708 0.248169
vt 0.230579 0.423153
vt 0.596232 0.668520
vt 0.596232 0.494013
vt 0.602866 0.494013
vt 0.602866 0.668520
vt 0.373460 0.711360
vt 0.373460 0.566826
vt 0.392533 0.566826
vt 0.392533 0.711360
vt 0.256053 0.640845
vt 0.243314 0.640845
vt 0.243314 0.247769
vt 0.256053 0.247769
vt 0.596232 0.624148
vt 0.583490 0.624147
vt 0.583490 0.494013
vt 0.596232 0.494014
vt 0.243314 0.640845
vt 0.230579 0.640845
vt 0.230579 0.247769
vt 0.243314 0.247769
vt 0.392533 0.566828
vt 0.405275 0.566826
vt 0.405275 0.696960
vt 0.392533 0.696962
vt 0.614410 0.247006
vt 0.722592 0.247006
vt 0.722592 0.640083
vt 0.108108 0.888249
vt 0.000000 0.888249
vt 0.108108 0.495173
vt 0.108108 0.814130
vt 0.108108 0.495173
vt 0.225516 0.495173
vt 0.225516 0.814130
vt 0.410235 0.247769
vt 0.410235 0.566806
vt 0.256053 0.566826
vt 0.256053 0.247789
vt 0.256053 0.885695
vt 0.256053 0.566826
vt 0.373460 0.885695
vt 0.410235 0.813050
vt 0.410235 0.494013
vt 0.564418 0.494033
vt 0.564418 0.813070
vt 0.108108 1.000000
vt 0.108108 0.814130
vt 0.225516 0.814130
vt 0.225516 1.000000
vt 0.722592 0.432748
vt 0.722592 0.247006
vt 0.840000 0.247006
vt 0.840000 0.432748
s 0
usemtl computer
f 1/1/1 2/2/1 4/3/1 3/4/1
f 3/5/2 4/6/2 8/7/2 7/8/2
f 7/9/3 8/10/3 6/11/3 5/12/3
f 5/13/4 6/14/4 2/15/4 1/16/4
f 3/17/5 7/18/5 5/19/5 1/20/5
f 8/21/6 4/22/6 2/23/6 6/24/6
f 10/25/7 9/26/7 11/27/7 12/28/7
f 15/29/7 16/30/7 20/31/7 19/32/7
f 12/33/8 11/34/8 16/35/8 15/36/8
f 9/37/9 10/38/9 13/39/9 14/40/9
f 11/41/10 9/42/10 14/43/10 16/44/10
f 10/45/11 12/46/11 15/47/11 13/48/11
f 20/49/12 18/50/12 22/46/12 24/51/12
f 14/52/7 13/53/7 17/54/7 18/55/7
f 16/30/7 14/52/7 18/55/7 20/31/7
f 13/53/7 15/29/7 19/32/7 17/54/7
f 21/56/13 23/57/13 24/58/13 22/59/13
f 17/60/14 19/61/14 23/62/14 21/63/14
f 19/64/15 20/65/15 24/66/15 23/67/15
f 18/68/16 17/69/16 21/70/16 22/71/16
f 25/72/1 26/73/1 28/74/1 27/75/1
f 27/76/17 28/77/17 32/78/17 31/79/17
f 31/80/3 32/81/3 30/82/3 29/83/3
f 29/84/18 30/85/18 26/86/18 25/87/18
f 27/88/13 31/89/13 29/90/13 25/3/13
f 32/91/19 28/92/19 26/19/19 30/93/19
f 33/94/1 34/95/1 36/96/1 35/97/1
f 35/98/17 36/99/17 40/100/17 39/101/17
f 39/102/3 40/103/3 38/69/3 37/104/3
f 37/105/18 38/106/18 34/107/18 33/108/18
f 35/109/13 39/110/13 37/111/13 33/112/13
f 40/113/19 36/114/19 34/115/19 38/116/19
