# Blender 4.1.1
# www.blender.org
o Cube
v -0.012793 -0.308881 -0.132024
v -0.012127 -0.308538 0.132885
v -0.292817 -0.020274 -0.131694
v -0.292151 -0.019932 0.133216
v 0.495485 0.321957 -0.134118
v 0.496151 0.322299 0.130792
v -0.038420 -0.121493 -0.132202
v -0.037754 -0.121150 0.132707
vn -0.7177 -0.6964 0.0027
vn 0.3697 0.9292 -0.0021
vn -0.6389 0.7693 0.0006
vn 0.7787 -0.6274 -0.0011
vn -0.0025 -0.0013 -1.0000
vn 0.0025 0.0013 1.0000
vt 0.375000 0.000000
vt 0.625000 0.000000
vt 0.625000 0.250000
vt 0.375000 0.250000
vt 0.625000 0.500000
vt 0.375000 0.500000
vt 0.625000 0.750000
vt 0.375000 0.750000
vt 0.625000 1.000000
vt 0.375000 1.000000
s 0
f 1/1/1 2/2/1 4/3/1 3/4/1
f 3/4/2 4/3/2 8/5/2 7/6/2
f 7/6/3 8/5/3 6/7/3 5/8/3
f 5/8/4 6/7/4 2/9/4 1/10/4
f 3/4/5 7/6/5 1/1/5
f 4/3/6 2/2/6 8/5/6
f 8/5/6 2/2/6 6/7/6
f 5/8/5 1/10/5 7/6/5
